<svg xmlns="http://www.w3.org/2000/svg" width="214.56" height="35" viewBox="0 0 214.56 35"><rect class="svg__rect" x="0" y="0" width="68.3" height="35" fill="#FF6DC9"/><rect class="svg__rect" x="66.3" y="0" width="148.26" height="35" fill="#FFFFFF"/><path class="svg__text" d="M16.51 22L13.46 13.47L15.08 13.47L17.22 20.14L19.39 13.47L21.02 13.47L17.95 22L16.51 22ZM26.53 22L25.06 22L25.06 13.47L26.53 13.47L26.53 22ZM30.91 19.42L30.91 19.42L32.39 19.42Q32.39 20.15 32.87 20.55Q33.35 20.95 34.25 20.95L34.25 20.95Q35.02 20.95 35.41 20.63Q35.80 20.32 35.80 19.80L35.80 19.80Q35.80 19.24 35.41 18.94Q35.01 18.63 33.98 18.32Q32.95 18.01 32.34 17.63L32.34 17.63Q31.17 16.90 31.17 15.72L31.17 15.72Q31.17 14.69 32.02 14.02Q32.86 13.35 34.20 13.35L34.20 13.35Q35.09 13.35 35.79 13.68Q36.48 14.01 36.88 14.61Q37.28 15.22 37.28 15.96L37.28 15.96L35.80 15.96Q35.80 15.29 35.38 14.91Q34.97 14.54 34.19 14.54L34.19 14.54Q33.46 14.54 33.06 14.85Q32.66 15.16 32.66 15.71L32.66 15.71Q32.66 16.18 33.09 16.50Q33.52 16.81 34.52 17.10Q35.52 17.40 36.12 17.78Q36.72 18.16 37.00 18.65Q37.29 19.13 37.29 19.79L37.29 19.79Q37.29 20.86 36.47 21.49Q35.65 22.12 34.25 22.12L34.25 22.12Q33.32 22.12 32.55 21.77Q31.77 21.43 31.34 20.83Q30.91 20.22 30.91 19.42ZM43.14 22L41.66 22L41.66 13.47L43.14 13.47L43.14 22ZM49.63 14.66L46.99 14.66L46.99 13.47L53.76 13.47L53.76 14.66L51.10 14.66L51.10 22L49.63 22L49.63 14.66Z" fill="#FFFFFF"/><path class="svg__text" d="M80.06 17.80L80.06 17.80Q80.06 16.54 80.66 15.54Q81.26 14.55 82.32 13.99Q83.39 13.43 84.74 13.43L84.74 13.43Q85.91 13.43 86.85 13.83Q87.79 14.22 88.41 14.97L88.41 14.97L86.90 16.33Q86.05 15.40 84.88 15.40L84.88 15.40Q84.86 15.40 84.86 15.40L84.86 15.40Q83.78 15.40 83.12 16.06Q82.46 16.71 82.46 17.80L82.46 17.80Q82.46 18.50 82.76 19.04Q83.06 19.59 83.60 19.89Q84.14 20.20 84.84 20.20L84.84 20.20Q85.52 20.20 86.12 19.93L86.12 19.93L86.12 17.62L88.22 17.62L88.22 21.10Q87.50 21.61 86.56 21.89Q85.63 22.17 84.69 22.17L84.69 22.17Q83.37 22.17 82.31 21.61Q81.26 21.05 80.66 20.05Q80.06 19.06 80.06 17.80ZM95.59 22L93.21 22L93.21 13.60L95.59 13.60L95.59 22ZM102.55 15.48L99.97 15.48L99.97 13.60L107.49 13.60L107.49 15.48L104.93 15.48L104.93 22L102.55 22L102.55 15.48ZM114.24 22L111.86 22L111.86 13.60L114.24 13.60L114.24 16.76L117.48 16.76L117.48 13.60L119.86 13.60L119.86 22L117.48 22L117.48 18.72L114.24 18.72L114.24 22ZM124.95 18.26L124.95 18.26L124.95 13.60L127.33 13.60L127.33 18.19Q127.33 20.20 128.92 20.20L128.92 20.20Q130.50 20.20 130.50 18.19L130.50 18.19L130.50 13.60L132.85 13.60L132.85 18.26Q132.85 20.13 131.81 21.15Q130.77 22.17 128.90 22.17L128.90 22.17Q127.02 22.17 125.99 21.15Q124.95 20.13 124.95 18.26ZM142.47 22L137.93 22L137.93 13.60L142.23 13.60Q143.84 13.60 144.68 14.19Q145.52 14.79 145.52 15.79L145.52 15.79Q145.52 16.39 145.23 16.87Q144.93 17.34 144.39 17.62L144.39 17.62Q145.11 17.87 145.52 18.41Q145.93 18.94 145.93 19.70L145.93 19.70Q145.93 20.80 145.04 21.40Q144.15 22 142.47 22L142.47 22ZM140.29 18.58L140.29 20.28L142.28 20.28Q143.53 20.28 143.53 19.43L143.53 19.43Q143.53 18.58 142.28 18.58L142.28 18.58L140.29 18.58ZM140.29 15.31L140.29 16.94L141.92 16.94Q143.12 16.94 143.12 16.12L143.12 16.12Q143.12 15.31 141.92 15.31L141.92 15.31L140.29 15.31ZM159.99 22L157.61 22L157.61 13.60L161.46 13.60Q162.60 13.60 163.44 13.98Q164.28 14.35 164.73 15.06Q165.19 15.76 165.19 16.71L165.19 16.71Q165.19 17.66 164.73 18.35Q164.28 19.05 163.44 19.42Q162.60 19.80 161.46 19.80L161.46 19.80L159.99 19.80L159.99 22ZM159.99 15.47L159.99 17.93L161.31 17.93Q162.04 17.93 162.42 17.61Q162.79 17.29 162.79 16.71L162.79 16.71Q162.79 16.12 162.42 15.80Q162.04 15.47 161.31 15.47L161.31 15.47L159.99 15.47ZM171.36 22L168.94 22L172.64 13.60L174.99 13.60L178.70 22L176.24 22L175.57 20.37L172.02 20.37L171.36 22ZM173.80 15.93L172.71 18.61L174.88 18.61L173.80 15.93ZM182.43 17.80L182.43 17.80Q182.43 16.54 183.03 15.54Q183.62 14.55 184.69 13.99Q185.76 13.43 187.11 13.43L187.11 13.43Q188.28 13.43 189.22 13.83Q190.16 14.22 190.78 14.97L190.78 14.97L189.27 16.33Q188.42 15.40 187.25 15.40L187.25 15.40Q187.23 15.40 187.23 15.40L187.23 15.40Q186.15 15.40 185.49 16.06Q184.83 16.71 184.83 17.80L184.83 17.80Q184.83 18.50 185.13 19.04Q185.43 19.59 185.97 19.89Q186.51 20.20 187.20 20.20L187.20 20.20Q187.89 20.20 188.49 19.93L188.49 19.93L188.49 17.62L190.59 17.62L190.59 21.10Q189.86 21.61 188.93 21.89Q188.00 22.17 187.06 22.17L187.06 22.17Q185.74 22.17 184.68 21.61Q183.62 21.05 183.03 20.05Q182.43 19.06 182.43 17.80ZM202.32 22L195.58 22L195.58 13.60L202.17 13.60L202.17 15.44L197.93 15.44L197.93 16.85L201.67 16.85L201.67 18.63L197.93 18.63L197.93 20.17L202.32 20.17L202.32 22Z" fill="#FF6DC9" x="79.3"/></svg>